<svg width="400" height="300" viewBox="0 0 400 300" xmlns="http://www.w3.org/2000/svg">
  <defs>
    <linearGradient id="grad1" x1="0%" y1="0%" x2="100%" y2="100%">
      <stop offset="0%" style="stop-color:#667eea;stop-opacity:1" />
      <stop offset="100%" style="stop-color:#764ba2;stop-opacity:1" />
    </linearGradient>
    <linearGradient id="grad2" x1="0%" y1="0%" x2="100%" y2="100%">
      <stop offset="0%" style="stop-color:#f093fb;stop-opacity:1" />
      <stop offset="100%" style="stop-color:#f5576c;stop-opacity:1" />
    </linearGradient>
  </defs>
  
  <!-- Background -->
  <rect width="400" height="300" fill="url(#grad1)"/>
  
  <!-- Geometric shapes representing modern UI -->
  <circle cx="100" cy="80" r="30" fill="rgba(255,255,255,0.2)"/>
  <rect x="160" y="50" width="60" height="60" rx="10" fill="rgba(255,255,255,0.3)"/>
  <polygon points="280,50 320,80 280,110 240,80" fill="rgba(255,255,255,0.25)"/>
  
  <!-- Code-like elements -->
  <rect x="50" y="140" width="300" height="20" rx="10" fill="rgba(255,255,255,0.1)"/>
  <rect x="70" y="170" width="200" height="15" rx="7" fill="rgba(255,255,255,0.15)"/>
  <rect x="90" y="195" width="150" height="15" rx="7" fill="rgba(255,255,255,0.1)"/>
  
  <!-- Decorative dots -->
  <circle cx="350" cy="50" r="3" fill="rgba(255,255,255,0.4)"/>
  <circle cx="30" cy="200" r="2" fill="rgba(255,255,255,0.3)"/>
  <circle cx="370" cy="250" r="4" fill="rgba(255,255,255,0.35)"/>
  
  <!-- Vue.js inspired logo element -->
  <polygon points="200,220 180,250 220,250" fill="url(#grad2)"/>
  <polygon points="200,230 190,245 210,245" fill="rgba(255,255,255,0.8)"/>
  
  <!-- Floating particles -->
  <circle cx="80" cy="30" r="1.5" fill="rgba(255,255,255,0.6)">
    <animate attributeName="cy" values="30;20;30" dur="3s" repeatCount="indefinite"/>
  </circle>
  <circle cx="320" cy="180" r="2" fill="rgba(255,255,255,0.5)">
    <animate attributeName="cx" values="320;330;320" dur="4s" repeatCount="indefinite"/>
  </circle>
  <circle cx="150" cy="270" r="1" fill="rgba(255,255,255,0.7)">
    <animate attributeName="cy" values="270;260;270" dur="2.5s" repeatCount="indefinite"/>
  </circle>
</svg>
