<svg width="89" height="28" viewBox="0 0 89 28" fill="none" xmlns="http://www.w3.org/2000/svg">
    <path d="M5.06121 22.7725C4.40722 22.7725 3.78001 22.5127 3.31757 22.0503C2.85513 21.5878 2.59533 20.9606 2.59533 20.3066C2.59533 19.6527 2.85513 19.0254 3.31757 18.563C3.78001 18.1006 4.40722 17.8408 5.06121 17.8408C5.56773 17.8219 6.06529 17.978 6.47028 18.2828C6.87527 18.5876 7.163 19.0226 7.28512 19.5145H9.96522C9.65698 17.232 7.94782 15.6616 5.08587 15.6616C2.12528 15.6616 0 17.8284 0 20.2943C0 22.7602 2.0513 24.9579 5.08587 24.9579C8.01409 24.9579 9.75099 23.2873 9.99912 20.9062H7.34368C7.2549 21.4414 6.97428 21.9261 6.55423 22.2696C6.13419 22.613 5.60346 22.7918 5.06121 22.7725Z" fill="#073034"/>
    <path d="M16.5908 15.66C13.4638 15.66 11.5126 17.8269 11.5126 20.2928C11.5126 22.7587 13.5162 24.9564 16.6077 24.9564C18.9565 24.9564 20.7689 23.6325 21.2544 21.6814H18.6251C18.2445 22.3595 17.5879 22.7725 16.6108 22.7725C15.4041 22.7725 14.407 22.0127 14.145 20.9046H21.4378C21.7722 17.662 19.3526 15.66 16.5908 15.66ZM14.242 19.4159C14.4183 18.9396 14.7363 18.5288 15.1532 18.2389C15.5702 17.949 16.066 17.7939 16.5738 17.7946C17.068 17.7847 17.5516 17.9382 17.9496 18.2314C18.3476 18.5246 18.6376 18.941 18.7746 19.4159H14.242Z" fill="#073034"/>
    <path d="M28.365 15.66C26.9086 15.66 25.6526 16.4707 25.2056 17.9271H25.1717V15.66H22.5918V28.0002H25.238V22.8064H25.2719C25.668 23.9978 26.9256 24.9641 28.382 24.9641C30.911 24.9641 32.7142 22.9606 32.7142 20.3159C32.7142 17.6713 30.8956 15.66 28.365 15.66ZM27.6284 22.7725C27.1406 22.7725 26.6639 22.6279 26.2584 22.357C25.8529 22.086 25.5368 21.7009 25.3502 21.2503C25.1635 20.7997 25.1147 20.3039 25.2099 19.8256C25.305 19.3473 25.5399 18.9079 25.8847 18.563C26.2296 18.2182 26.6689 17.9833 27.1473 17.8882C27.6256 17.793 28.1214 17.8419 28.572 18.0285C29.0226 18.2151 29.4077 18.5312 29.6787 18.9367C29.9496 19.3422 30.0942 19.819 30.0942 20.3067C30.0942 20.9607 29.8344 21.5879 29.372 22.0503C28.9095 22.5127 28.2823 22.7725 27.6284 22.7725Z" fill="#073034"/>
    <path d="M47.1102 15.66C44.1496 15.66 42.032 17.8269 42.032 20.2928C42.032 22.7587 44.1496 24.9564 47.1102 24.9564C50.2372 24.9564 52.1961 22.7725 52.1961 20.2928C52.1961 17.8131 50.2372 15.66 47.1102 15.66ZM47.1102 22.7725C46.6225 22.7725 46.1457 22.6279 45.7402 22.357C45.3347 22.086 45.0187 21.7009 44.832 21.2503C44.6454 20.7997 44.5965 20.3039 44.6917 19.8256C44.7868 19.3473 45.0217 18.9079 45.3666 18.563C45.7114 18.2182 46.1508 17.9833 46.6291 17.8882C47.1075 17.793 47.6033 17.8419 48.0538 18.0285C48.5044 18.2151 48.8895 18.5312 49.1605 18.9367C49.4314 19.3422 49.5761 19.819 49.5761 20.3067C49.5761 20.9607 49.3163 21.5879 48.8538 22.0503C48.3914 22.5127 47.7642 22.7725 47.1102 22.7725Z" fill="#073034"/>
    <path d="M34.1526 18.673V24.9564H36.7988V17.8439H41.5209V15.6616H37.1656C36.3668 15.6616 35.6006 15.9788 35.0356 16.5435C34.4706 17.1082 34.153 17.8742 34.1526 18.673Z" fill="#073034"/>
    <path d="M49.5429 0V7.1125H48.9773C48.7037 7.1125 48.4327 7.05861 48.1799 6.9539C47.9271 6.84918 47.6974 6.6957 47.5039 6.50222C47.3104 6.30873 47.157 6.07902 47.0523 5.82622C46.9475 5.57342 46.8936 5.30247 46.8936 5.02884V1.29304H44.2336V5.02884C44.2336 5.58187 44.0139 6.11225 43.6228 6.5033C43.2318 6.89435 42.7014 7.11405 42.1484 7.11405H41.3331C40.7805 7.11323 40.2507 6.89323 39.8601 6.50231C39.4695 6.11139 39.2498 5.58148 39.2494 5.02884V1.29304H36.577V5.02884C36.577 5.3026 36.5231 5.57368 36.4183 5.82658C36.3135 6.07948 36.1599 6.30925 35.9662 6.50276C35.7726 6.69626 35.5427 6.84971 35.2897 6.95434C35.0367 7.05896 34.7656 7.11271 34.4918 7.1125H31.8549C31.5598 7.12638 31.265 7.0795 30.9888 6.97479C30.7125 6.87007 30.4607 6.70974 30.249 6.50374C29.8606 6.11024 29.6397 5.58167 29.6325 5.02884V1.29458H26.9863V5.03038C26.9863 5.583 26.7668 6.11299 26.376 6.50375C25.9853 6.89452 25.4553 7.11405 24.9027 7.11405H17.0982C16.5509 7.10837 16.0279 6.8873 15.6425 6.49873C15.2571 6.11015 15.0404 5.58537 15.0392 5.03809C15.0392 3.7918 15.0392 2.54447 15.0392 1.29613H12.3914V10.1563H10.6206V12.3402H12.0246C12.8236 12.3402 13.5899 12.023 14.1551 11.4583C14.7204 10.8936 15.0384 10.1277 15.0392 9.32871V9.09753C15.4339 9.23087 15.8477 9.29906 16.2644 9.29943H19.7598C22.6572 9.31484 24.8256 9.30713 25.7611 9.29943C26.7014 9.30034 27.6094 8.95655 28.3133 8.33311C29.0181 8.95469 29.9257 9.29725 30.8655 9.29635H34.3608C34.6903 9.31666 35.0208 9.31666 35.3503 9.29635C35.6734 9.28538 35.9948 9.24462 36.3104 9.17459C36.9032 9.02172 37.4514 8.73073 37.9102 8.32541C38.6187 8.94858 39.5295 9.29309 40.4731 9.2948H43.0022C43.3282 9.29506 43.653 9.25362 43.9685 9.17151C44.5579 9.01869 45.1029 8.72878 45.559 8.32541C46.2671 8.95255 47.1807 9.29803 48.1266 9.29635H48.2976C48.6198 9.29635 49.6493 9.28864 52.1968 9.29635V0H49.5429Z" fill="#073034"/>
    <path d="M31.6076 10.1376C31.3905 10.1388 31.1786 10.2042 30.9986 10.3256C30.8186 10.447 30.6785 10.6189 30.596 10.8197C30.5134 11.0206 30.4922 11.2413 30.5348 11.4542C30.5775 11.6671 30.6822 11.8626 30.8357 12.0161C30.9892 12.1696 31.1847 12.2743 31.3976 12.3169C31.6105 12.3596 31.8312 12.3383 32.032 12.2558C32.2328 12.1733 32.4048 12.0332 32.5261 11.8532C32.6475 11.6732 32.7129 11.4613 32.7142 11.2442C32.716 11.0983 32.6887 10.9536 32.6337 10.8185C32.5788 10.6834 32.4973 10.5607 32.3942 10.4576C32.2911 10.3544 32.1684 10.273 32.0333 10.218C31.8982 10.1631 31.7534 10.1357 31.6076 10.1376Z" fill="#073034"/>
    <path d="M34.1837 10.1376C33.9667 10.1391 33.7549 10.2048 33.5751 10.3264C33.3953 10.4479 33.2555 10.62 33.1732 10.8208C33.0909 11.0217 33.0698 11.2423 33.1127 11.4551C33.1555 11.6679 33.2603 11.8633 33.4139 12.0166C33.5675 12.17 33.763 12.2745 33.9758 12.3171C34.1886 12.3596 34.4093 12.3382 34.61 12.2557C34.8108 12.1731 34.9826 12.033 35.1039 11.853C35.2252 11.6731 35.2906 11.4612 35.2918 11.2442C35.2937 11.0982 35.2663 10.9534 35.2112 10.8182C35.1562 10.683 35.0746 10.5602 34.9713 10.457C34.868 10.3539 34.7451 10.2725 34.6098 10.2176C34.4746 10.1627 34.3297 10.1356 34.1837 10.1376Z" fill="#073034"/>
    <path d="M21.1064 10.1376C20.8893 10.1388 20.6774 10.2042 20.4973 10.3256C20.3173 10.447 20.1773 10.6189 20.0947 10.8197C20.0122 11.0206 19.9909 11.2413 20.0336 11.4542C20.0763 11.6671 20.1809 11.8626 20.3344 12.0161C20.488 12.1696 20.6835 12.2743 20.8964 12.3169C21.1092 12.3596 21.33 12.3383 21.5308 12.2558C21.7316 12.1733 21.9035 12.0332 22.0249 11.8532C22.1463 11.6732 22.2117 11.4613 22.2129 11.2442C22.2148 11.0983 22.1874 10.9536 22.1325 10.8185C22.0775 10.6834 21.9961 10.5607 21.893 10.4576C21.7898 10.3544 21.6671 10.273 21.532 10.218C21.3969 10.1631 21.2522 10.1357 21.1064 10.1376Z" fill="#073034"/>
    <path d="M0.630514 2.97471C0.259903 3.62499 0.0486432 4.35384 0.0140457 5.10153C0.0140457 8.90051 3.76525 9.33666 6.32052 9.29968H6.55478V10.1473H4.78243V12.3312H4.79321H6.20647C6.60207 12.3314 6.99383 12.2536 7.35938 12.1024C7.72492 11.9511 8.05708 11.7293 8.33688 11.4497C8.61669 11.17 8.83864 10.838 8.99008 10.4725C9.14152 10.107 9.21946 9.71531 9.21946 9.31971V1.92517C5.28177 0.746173 1.60608 1.35185 0.630514 2.97471ZM6.55632 7.10196C4.61752 7.2006 2.93764 7.11892 2.32734 6.08787C2.17643 5.80352 2.10158 5.48498 2.11004 5.16317C2.14086 2.91306 6.36367 3.54186 6.55632 3.57114V7.10196Z" fill="#073034"/>
    <path d="M83.2801 12.6006H87.617C87.8622 12.6006 88.0974 12.5032 88.2708 12.3298C88.4442 12.1564 88.5417 11.9212 88.5417 11.6759V7.3483C88.5417 7.10306 88.4442 6.86786 88.2708 6.69444C88.0974 6.52102 87.8622 6.4236 87.617 6.4236H82.9564C82.7104 6.42319 82.4745 6.32572 82.2999 6.15235L82.286 6.13848C82.1997 6.05264 82.1311 5.9506 82.0843 5.83819C82.0375 5.72579 82.0134 5.60525 82.0133 5.48349V0.960151C82.0063 0.70823 81.9033 0.468489 81.7254 0.29C81.5475 0.11151 81.3081 0.00776721 81.0562 0H71.6134C71.3682 0 71.133 0.0974231 70.9596 0.270838C70.7861 0.444254 70.6887 0.679456 70.6887 0.924703V5.33091C70.6892 5.45308 70.6655 5.57414 70.619 5.6871C70.5724 5.80005 70.5039 5.90266 70.4175 5.98899L70.2757 6.13078C70.1894 6.21722 70.0867 6.2857 69.9738 6.33226C69.8608 6.37882 69.7398 6.40253 69.6176 6.40203H65.0789C64.8264 6.40983 64.5866 6.514 64.4086 6.69315C64.2306 6.87229 64.128 7.1128 64.1218 7.36526V11.773C64.1221 11.8949 64.0983 12.0157 64.0517 12.1284C64.0052 12.241 63.9368 12.3434 63.8506 12.4295L63.7088 12.5713C63.6226 12.6581 63.52 12.7268 63.407 12.7736C63.2941 12.8205 63.173 12.8444 63.0507 12.8441H58.5119C58.2667 12.8441 58.0315 12.9415 57.8581 13.115C57.6846 13.2884 57.5872 13.5236 57.5872 13.7688V20.6517C57.5872 20.8969 57.6846 21.1321 57.8581 21.3056C58.0315 21.479 58.2667 21.5764 58.5119 21.5764H63.0461C63.1682 21.5759 63.2893 21.5996 63.4022 21.6462C63.5152 21.6927 63.6178 21.7612 63.7041 21.8476L63.8444 21.9894C63.931 22.0752 63.9999 22.1771 64.0469 22.2895C64.094 22.402 64.1184 22.5226 64.1187 22.6444V27.0553C64.1186 27.2837 64.2044 27.5037 64.3591 27.6717C64.389 27.7055 64.4209 27.7374 64.4547 27.7673C64.6215 27.9055 64.8314 27.9808 65.048 27.98H76.1121H76.1337H87.674C87.9041 27.98 88.1248 27.8886 88.2875 27.7258C88.4502 27.5631 88.5417 27.3424 88.5417 27.1123V22.6753C88.5417 22.4451 88.4502 22.2244 88.2875 22.0617C88.1248 21.899 87.9041 21.8076 87.674 21.8076H76.1892C76.163 21.8076 76.1383 21.8076 76.1121 21.8076H64.7213C64.5994 21.8073 64.4788 21.7829 64.3664 21.7358C64.254 21.6887 64.152 21.6199 64.0663 21.5332L64.0524 21.5225C63.966 21.4361 63.8975 21.3335 63.851 21.2206C63.8044 21.1076 63.7807 20.9865 63.7812 20.8644V13.5839C63.7818 13.3371 63.8798 13.1006 64.054 12.9258L64.0679 12.9135C64.1539 12.8269 64.2562 12.7583 64.3689 12.7115C64.4815 12.6646 64.6024 12.6406 64.7244 12.6407H69.3941C69.6466 12.6329 69.8864 12.5287 70.0644 12.3496C70.2424 12.1704 70.345 11.9299 70.3512 11.6775V7.14333C70.3509 7.02105 70.3749 6.89993 70.4217 6.78697C70.4685 6.67401 70.5373 6.57145 70.624 6.48525L70.6379 6.47138C70.7239 6.38484 70.8262 6.31618 70.9389 6.26937C71.0515 6.22255 71.1724 6.19849 71.2944 6.19859H81.2874C81.5343 6.20293 81.7695 6.30424 81.9424 6.48062L82.0842 6.62241C82.1705 6.70825 82.2391 6.81031 82.2859 6.92271C82.3327 7.03511 82.3568 7.15565 82.3569 7.27741V11.6713C82.3563 11.793 82.3797 11.9136 82.4258 12.0262C82.4719 12.1388 82.5398 12.2413 82.6256 12.3276C82.7114 12.4139 82.8133 12.4825 82.9256 12.5293C83.0379 12.5762 83.1584 12.6004 83.2801 12.6006Z" fill="#2AC8A5"/>
    </svg>
