<svg width="89" height="28" viewBox="0 0 575 182" fill="none" xmlns="http://www.w3.org/2000/svg">
    <path d="M32.84 147.76C28.5965 147.76 24.5269 146.074 21.5263 143.074C18.5257 140.073 16.84 136.004 16.84 131.76C16.84 127.517 18.5257 123.447 21.5263 120.446C24.5269 117.446 28.5965 115.76 32.84 115.76C36.1151 115.65 39.3288 116.667 41.9455 118.639C44.5622 120.612 46.4238 123.421 47.22 126.6H64.61C62.61 111.79 51.51 101.6 32.95 101.6C13.74 101.61 0 115.67 0 131.66C0 147.65 13.31 161.93 33 161.93C52 161.93 63.26 151.09 64.87 135.63H47.65C47.0763 139.106 45.2567 142.254 42.5313 144.487C39.8058 146.719 36.3608 147.882 32.84 147.76Z" fill="#FFFBEC"/>
    <path d="M107.65 101.61C87.36 101.61 74.7 115.67 74.7 131.66C74.7 147.65 87.7 161.93 107.75 161.93C122.99 161.93 134.8 153.34 137.91 140.68H120.85C118.38 145.08 114.11 147.76 107.78 147.76C99.95 147.76 93.48 142.82 91.78 135.63H139.11C141.24 114.6 125.57 101.61 107.65 101.61ZM92.41 126C93.5537 122.911 95.6176 120.247 98.3232 118.367C101.029 116.488 104.246 115.484 107.54 115.49C110.744 115.424 113.881 116.419 116.461 118.32C119.042 120.22 120.922 122.92 121.81 126H92.41Z" fill="#FFFBEC"/>
    <path d="M184 101.61C174.56 101.61 166.4 106.87 163.51 116.31H163.29V101.61H146.59V181.67H163.76V148H164C166.57 155.73 174.73 162 184.17 162C200.59 162 212.29 149 212.29 131.84C212.29 114.68 200.46 101.61 184 101.61ZM179.17 147.76C176.006 147.76 172.912 146.822 170.281 145.064C167.65 143.306 165.599 140.807 164.388 137.883C163.177 134.959 162.86 131.742 163.478 128.639C164.095 125.535 165.619 122.684 167.856 120.446C170.094 118.209 172.945 116.685 176.049 116.068C179.152 115.45 182.369 115.767 185.293 116.978C188.217 118.189 190.715 120.24 192.474 122.871C194.232 125.502 195.17 128.596 195.17 131.76C195.17 135.997 193.49 140.06 190.498 143.06C187.506 146.059 183.447 147.75 179.21 147.76H179.17Z" fill="#FFFBEC"/>
    <path d="M305.68 101.61C286.47 101.61 272.73 115.67 272.73 131.66C272.73 147.65 286.47 161.93 305.68 161.93C325.96 161.93 338.63 147.76 338.63 131.66C338.63 115.56 326 101.61 305.68 101.61ZM305.68 147.76C302.515 147.76 299.422 146.822 296.791 145.064C294.16 143.306 292.109 140.807 290.898 137.883C289.687 134.959 289.37 131.742 289.987 128.639C290.605 125.535 292.129 122.684 294.366 120.446C296.604 118.209 299.455 116.685 302.559 116.068C305.662 115.45 308.879 115.767 311.803 116.978C314.727 118.189 317.225 120.24 318.983 122.871C320.742 125.502 321.68 128.596 321.68 131.76C321.68 136.004 319.994 140.073 316.994 143.074C313.993 146.074 309.923 147.76 305.68 147.76Z" fill="#FFFBEC"/>
    <path d="M221.6 121.15V161.93H238.77V115.78H269.41V101.61H241.14C235.958 101.61 230.988 103.669 227.323 107.333C223.659 110.998 221.6 115.968 221.6 121.15Z" fill="#FFFBEC"/>
    <path d="M321.46 0V46.15H317.78C316.004 46.15 314.245 45.8 312.604 45.1199C310.963 44.4398 309.472 43.4431 308.216 42.1866C306.961 40.93 305.965 39.4384 305.286 37.797C304.607 36.1555 304.259 34.3963 304.26 32.62V8.39H287V32.63C286.997 36.2149 285.572 39.6522 283.037 42.1872C280.502 44.7221 277.065 46.1474 273.48 46.15H268.19C264.604 46.1474 261.166 44.7224 258.629 42.1878C256.093 39.6531 254.665 36.2158 254.66 32.63V8.39H237.32V32.62C237.321 34.3963 236.972 36.1555 236.294 37.797C235.615 39.4384 234.619 40.93 233.364 42.1866C232.108 43.4431 230.617 44.4398 228.976 45.1199C227.335 45.8 225.576 46.15 223.8 46.15H206.69C204.774 46.2285 202.862 45.9141 201.071 45.2262C199.281 44.5384 197.651 43.4915 196.28 42.15C193.767 39.5963 192.334 36.1725 192.28 32.59V8.4H175.1V32.63C175.101 34.4063 174.752 36.1655 174.074 37.8069C173.395 39.4484 172.399 40.94 171.144 42.1965C169.888 43.4531 168.397 44.4498 166.756 45.1299C165.115 45.81 163.356 46.16 161.58 46.16H110.94C107.388 46.118 103.995 44.6809 101.494 42.1588C98.9921 39.6368 97.5828 36.2322 97.5699 32.68V8.4H80.3999V65.88H68.9099V80.05H77.9999C80.5676 80.0539 83.1109 79.5518 85.4844 78.5722C87.858 77.5926 90.0151 76.1548 91.8326 74.341C93.6501 72.5272 95.0923 70.373 96.0768 68.0015C97.0612 65.63 97.5686 63.0877 97.5699 60.52V59C100.149 59.8613 102.851 60.3003 105.57 60.3H128.25C147.04 60.41 161.12 60.3 167.19 60.3C169.312 60.3047 171.426 60.0358 173.48 59.5C177.284 58.5103 180.802 56.6399 183.75 54.04C188.322 58.0767 194.211 60.3031 200.31 60.3H223C225.138 60.4361 227.282 60.4361 229.42 60.3C231.513 60.238 233.596 59.9768 235.64 59.52C239.482 58.5262 243.032 56.6343 246 54C250.599 58.0399 256.509 60.2717 262.63 60.28H279C281.112 60.2866 283.217 60.0176 285.26 59.48C289.102 58.5015 292.657 56.6232 295.63 54C300.204 58.0485 306.102 60.2825 312.21 60.28H313.33C315.42 60.28 322.09 60.23 338.63 60.28V0H321.46Z" fill="#FFFBEC"/>
    <path d="M137 65.7799C135.591 65.778 134.213 66.1932 133.039 66.973C131.865 67.7529 130.948 68.8626 130.404 70.1625C129.86 71.4623 129.713 72.8941 129.981 74.2775C130.249 75.661 130.92 76.9342 131.91 77.9369C132.9 78.9395 134.165 79.6268 135.545 79.9121C136.925 80.1973 138.358 80.0679 139.665 79.54C140.972 79.0122 142.093 78.1095 142.887 76.9457C143.682 75.7819 144.114 74.409 144.13 72.9999C144.147 72.0546 143.975 71.1153 143.624 70.2374C143.273 69.3595 142.75 68.5607 142.086 67.8879C141.421 67.2152 140.629 66.6821 139.756 66.3201C138.882 65.9581 137.945 65.7744 137 65.7799Z" fill="#FFFBEC"/>
    <path d="M4.08008 19.29C1.6778 23.5105 0.307201 28.239 0.0800781 33.09C0.100078 57.75 24.4401 60.57 41.0001 60.34C41.5101 60.34 42.0001 60.34 42.5201 60.34V65.88H31.0001V80.05H31.0601H40.1801C45.3633 80.0606 50.3387 78.0124 54.0122 74.3558C57.6858 70.6991 59.7568 65.7332 59.7701 60.55V12.49C34.2701 4.82998 10.4201 8.76998 4.08008 19.29ZM42.5301 46.08C29.9601 46.71 19.0601 46.19 15.0901 39.5C14.1152 37.6537 13.633 35.5871 13.6901 33.5C13.8901 18.92 41.2901 23 42.5301 23.2V46.08Z" fill="#FFFBEC"/>
    <path d="M205.87 65.7799C204.463 65.7879 203.09 66.2114 201.923 66.9972C200.756 67.7831 199.847 68.8962 199.31 70.1969C198.774 71.4976 198.633 72.9279 198.907 74.308C199.18 75.6882 199.856 76.9568 200.848 77.9545C201.84 78.9521 203.105 79.6344 204.483 79.9157C205.862 80.1969 207.293 80.0646 208.597 79.5352C209.9 79.0059 211.019 78.1032 211.811 76.9405C212.603 75.7777 213.034 74.4068 213.05 72.9999C213.068 72.0503 212.894 71.1069 212.54 70.2256C212.186 69.3444 211.658 68.5433 210.989 67.8699C210.319 67.1964 209.521 66.6644 208.641 66.3054C207.762 65.9464 206.82 65.7677 205.87 65.7799Z" fill="#FFFBEC"/>
    <path d="M223.9 65.7799C222.493 65.7879 221.12 66.2114 219.953 66.9972C218.786 67.7831 217.877 68.8962 217.34 70.1969C216.804 71.4976 216.663 72.9279 216.937 74.308C217.21 75.6882 217.886 76.9568 218.878 77.9545C219.87 78.9521 221.135 79.6344 222.513 79.9157C223.892 80.1969 225.323 80.0646 226.627 79.5352C227.93 79.0059 229.049 78.1032 229.841 76.9405C230.633 75.7777 231.064 74.4068 231.08 72.9999C231.098 72.0503 230.924 71.1069 230.57 70.2256C230.216 69.3444 229.688 68.5433 229.019 67.8699C228.349 67.1964 227.551 66.6644 226.671 66.3054C225.792 65.9464 224.85 65.7677 223.9 65.7799Z" fill="#FFFBEC"/>
    <path d="M540.36 81.76H568.51C570.101 81.76 571.627 81.1279 572.753 80.0026C573.878 78.8774 574.51 77.3513 574.51 75.76V47.68C574.51 46.0887 573.878 44.5626 572.753 43.4374C571.627 42.3121 570.101 41.68 568.51 41.68H538.26C537.467 41.6793 536.683 41.5217 535.952 41.2162C535.221 40.9106 534.557 40.4633 534 39.9L533.91 39.81C533.351 39.2522 532.908 38.5897 532.606 37.8604C532.304 37.1311 532.149 36.3494 532.15 35.56V6.23C532.141 4.63983 531.5 3.11841 530.37 2C529.812 1.37605 529.129 0.875773 528.366 0.531329C527.604 0.186885 526.777 0.00589719 525.94 0L464.66 0C463.069 0 461.542 0.632141 460.417 1.75736C459.292 2.88258 458.66 4.4087 458.66 6V34.6C458.662 35.3934 458.506 36.1793 458.203 36.9123C457.899 37.6452 457.453 38.3106 456.89 38.87L455.97 39.78C455.412 40.3415 454.748 40.787 454.017 41.0908C453.286 41.3946 452.502 41.5506 451.71 41.55H422.25C420.6 41.5909 419.029 42.2665 417.865 43.4363C416.701 44.6061 416.033 46.1799 416 47.83V76.42C416.002 77.2134 415.846 77.9993 415.543 78.7323C415.239 79.4652 414.793 80.1306 414.23 80.69L413.31 81.61C412.752 82.1715 412.088 82.617 411.357 82.9208C410.626 83.2245 409.842 83.3806 409.05 83.38H379.66C378.069 83.38 376.542 84.0121 375.417 85.1374C374.292 86.2626 373.66 87.7887 373.66 89.38V134.04C373.66 135.631 374.292 137.157 375.417 138.283C376.542 139.408 378.069 140.04 379.66 140.04H409.08C409.872 140.035 410.657 140.188 411.39 140.488C412.123 140.788 412.789 141.231 413.35 141.79L414.25 142.72C414.81 143.282 415.253 143.95 415.554 144.685C415.854 145.419 416.006 146.206 416 147V175.61C415.999 177.094 416.56 178.523 417.57 179.61C417.764 179.829 417.971 180.036 418.19 180.23C419.273 181.123 420.636 181.608 422.04 181.6H568.91C569.648 181.601 570.38 181.457 571.062 181.175C571.745 180.893 572.365 180.479 572.887 179.957C573.409 179.435 573.823 178.815 574.105 178.132C574.387 177.45 574.531 176.718 574.53 175.98V147.12C574.53 145.629 573.938 144.2 572.884 143.146C571.83 142.092 570.4 141.5 568.91 141.5H494.35C494.188 141.473 494.024 141.456 493.86 141.45H420C419.209 141.448 418.427 141.29 417.697 140.984C416.968 140.679 416.306 140.232 415.75 139.67L415.66 139.6C415.098 139.039 414.653 138.371 414.351 137.637C414.049 136.902 413.895 136.114 413.9 135.32V88.14C413.898 87.3466 414.053 86.5607 414.357 85.8277C414.661 85.0948 415.107 84.4294 415.67 83.87L415.76 83.78C416.315 83.2191 416.975 82.7731 417.703 82.4677C418.43 82.1622 419.211 82.0033 420 82H450.26C451.898 81.9494 453.454 81.2734 454.609 80.111C455.764 78.9487 456.43 77.3881 456.47 75.75V46.34C456.469 45.5483 456.625 44.7642 456.929 44.0331C457.233 43.302 457.678 42.6382 458.24 42.08L458.33 41.99C458.888 41.4285 459.552 40.983 460.283 40.6792C461.014 40.3754 461.798 40.2194 462.59 40.22H527.43C529.032 40.246 530.56 40.9037 531.68 42.05L532.6 42.97C533.16 43.527 533.605 44.1891 533.909 44.9185C534.213 45.6478 534.369 46.4299 534.37 47.22V75.75C534.369 76.5379 534.522 77.3184 534.823 78.0469C535.123 78.7753 535.564 79.4375 536.12 79.9956C536.676 80.5537 537.337 80.9967 538.065 81.2995C538.792 81.6022 539.572 81.7587 540.36 81.76Z" fill="#FFFBEC"/>
    </svg>
